<svg width="329" height="429" viewBox="0 0 329 429" fill="none" xmlns="http://www.w3.org/2000/svg">
<g opacity="0.4" clip-path="url(#clip0_51_102)">
<path d="M220.635 418.275C218.683 419.25 216.73 420.225 214.777 420.225C216.73 420.225 218.683 418.275 220.635 418.275Z" fill="#008f39"/>
<path d="M287.021 364.65C285.068 367.575 283.116 370.5 281.163 372.45C283.116 369.525 285.068 366.6 287.021 364.65Z" fill="#008f39"/>
<path d="M243.089 406.575C240.16 408.525 237.231 409.5 235.279 411.45C238.208 410.475 241.136 408.525 243.089 406.575Z" fill="#008f39"/>
<path d="M280.187 47.775C248.947 16.575 208.92 0 164.988 0C121.056 0 79.0771 16.575 48.8131 47.775C17.5727 78.975 0 119.925 0 163.8C0 212.55 0.976261 247.65 3.90504 268.125C4.88131 276.9 7.81009 288.6 12.6914 303.225C12.6914 301.275 12.6914 298.35 15.6202 297.375C17.5727 296.4 19.5252 295.425 20.5015 294.45C16.5964 282.75 14.6439 273.975 13.6677 267.15C10.7389 247.65 9.76261 212.55 9.76261 164.775C9.76261 79.95 80.0534 9.75 164.988 9.75C249.923 9.75 319.237 78.975 319.237 163.8C319.237 248.625 318.261 246.675 315.332 266.175C314.356 273 312.404 282.75 308.499 293.475C310.451 294.45 312.404 295.425 313.38 296.4C315.332 297.375 316.309 300.3 316.309 302.25C321.19 287.625 324.119 275.925 325.095 267.15C328.024 246.675 329 211.575 329 162.825C329 118.95 311.427 78 280.187 46.8V47.775Z" fill="#008f39"/>
<path d="M22.454 327.6C22.454 326.625 21.4777 324.675 20.5015 323.7C21.4777 325.65 21.4777 326.625 22.454 327.6Z" fill="#008f39"/>
<path d="M18.549 317.85C18.549 316.875 17.5727 314.925 16.5964 313.95C16.5964 314.925 17.5727 316.875 18.549 317.85Z" fill="#008f39"/>
<path d="M314.356 305.175C314.356 306.15 314.356 307.125 313.38 308.1C313.38 307.125 313.38 306.15 314.356 305.175Z" fill="#008f39"/>
<path d="M267.496 386.1H265.543C263.591 385.125 262.614 383.175 262.614 381.225V379.275C260.662 381.225 257.733 384.15 255.78 386.1V395.85C255.78 397.8 255.78 398.775 253.828 399.75C250.899 402.675 247.97 404.625 244.065 406.575C257.733 397.8 269.448 388.05 279.211 375.375C276.282 379.275 273.353 382.2 270.424 385.125C269.448 386.1 267.496 387.075 266.519 387.075L267.496 386.1Z" fill="#008f39"/>
<path d="M311.427 313.95C311.427 314.925 310.451 316.875 309.475 317.85C309.475 316.875 310.451 314.925 311.427 313.95Z" fill="#008f39"/>
<path d="M307.522 323.7C307.522 324.675 306.546 325.65 305.57 327.6C306.546 326.625 306.546 325.65 307.522 323.7Z" fill="#008f39"/>
<path d="M135.7 426.075C133.748 426.075 131.795 426.075 129.843 425.1C131.795 425.1 133.748 425.1 135.7 426.075Z" fill="#008f39"/>
<path d="M147.415 428.025C145.463 428.025 142.534 428.025 140.582 427.05C143.51 428.025 145.463 428.025 147.415 428.025Z" fill="#008f39"/>
<path d="M198.181 425.1C196.229 425.1 194.276 425.1 192.323 426.075C194.276 426.075 196.229 425.1 198.181 425.1Z" fill="#008f39"/>
<path d="M209.896 422.175C207.944 422.175 205.991 423.15 205.015 424.125C206.967 424.125 207.944 423.15 209.896 422.175Z" fill="#008f39"/>
<path d="M47.8368 372.45C45.8843 369.525 43.9318 366.6 41.9792 364.65C43.9318 367.575 45.8843 370.5 47.8368 372.45Z" fill="#008f39"/>
<path d="M187.442 427.05C185.49 427.05 182.561 427.05 180.608 428.025C183.537 428.025 185.49 428.025 187.442 427.05Z" fill="#008f39"/>
<path d="M124.961 424.125C123.009 424.125 121.056 423.15 120.08 422.175C122.033 422.175 123.009 423.15 124.961 424.125Z" fill="#008f39"/>
<path d="M93.7211 411.45C90.7923 409.5 87.8635 408.525 85.911 406.575C88.8398 408.525 90.7923 409.5 93.7211 411.45Z" fill="#008f39"/>
<path d="M72.2433 394.875V385.125C70.2908 383.175 68.3383 381.225 65.4095 378.3V380.25C65.4095 382.2 64.4332 384.15 62.4807 385.125H60.5282C58.5757 385.125 57.5994 385.125 56.6231 383.175C53.6944 380.25 50.7656 376.35 47.8368 373.425C57.5994 386.1 70.2908 396.825 82.9822 404.625C80.0534 402.675 76.1484 400.725 73.2196 397.8C72.2433 397.8 71.2671 395.85 71.2671 393.9L72.2433 394.875Z" fill="#008f39"/>
<path d="M177.679 256.425V269.1C177.679 271.05 178.656 272.025 180.608 273C181.585 273 182.561 273.975 183.537 273.975H184.513C184.513 273.975 232.35 262.275 246.994 260.325C288.973 255.45 310.451 236.925 309.475 205.725V171.6C308.498 169.65 307.522 168.675 306.546 167.7C305.57 166.725 304.593 165.75 302.641 165.75H260.662C237.231 167.7 215.754 177.45 200.133 193.05C184.513 210.6 175.727 232.05 176.703 255.45L177.679 256.425ZM299.712 176.475V205.725C300.688 231.075 283.116 245.7 246.018 250.575C233.326 252.525 201.11 259.35 187.442 263.25V256.425C187.442 235.95 194.276 216.45 207.944 201.825C222.587 187.2 241.136 178.425 261.638 178.425L298.736 176.475H299.712Z" fill="#008f39"/>
<path d="M145.463 273.975C146.439 273.975 147.415 273.975 148.392 273C149.368 272.025 150.344 270.075 150.344 269.1V256.425C151.321 233.025 143.51 211.575 126.914 195C110.318 178.425 89.8161 168.675 66.3858 168.675H24.4066C22.454 167.7 21.4778 168.675 20.5015 168.675C19.5253 169.65 18.549 170.625 18.549 172.575V206.7C16.5965 237.9 38.0742 256.425 80.0534 261.3C95.6736 263.25 142.534 274.95 142.534 274.95H143.51L145.463 273.975ZM28.3116 205.725V176.475L66.3858 177.45C86.8873 177.45 105.436 186.225 120.08 200.85C134.724 215.475 141.558 234.975 140.582 255.45V262.275C126.914 259.35 95.6736 251.55 82.006 249.6C44.908 245.7 27.3354 231.075 28.3116 205.725Z" fill="#008f39"/>
<path d="M255.78 394.875V385.125L252.852 334.425C252.852 325.65 247.97 317.85 240.16 312C232.35 307.125 223.564 306.15 214.777 309.075C182.561 321.75 147.415 320.775 112.27 308.1C104.46 305.175 94.6974 306.15 86.8873 311.025C79.0772 315.9 75.1721 323.7 74.1959 333.45L71.2671 385.125V394.875C71.2671 396.825 71.2671 397.8 73.2196 398.775C76.1484 401.7 79.0772 403.65 82.9822 405.6C82.9822 405.6 83.9585 405.6 84.9347 406.575C87.8635 408.525 90.7923 409.5 92.7448 411.45L95.6736 413.4C97.6261 414.375 100.555 415.35 102.507 416.325C104.46 416.325 105.436 417.3 107.389 418.275C109.341 419.25 111.294 420.225 113.246 420.225C115.199 420.225 117.151 421.2 118.128 422.175C120.08 422.175 122.033 423.15 123.009 424.125C124.961 424.125 126.914 425.1 128.866 426.075C130.819 426.075 132.772 426.075 134.724 427.05C136.677 427.05 138.629 428.025 140.582 428.025C142.534 428.025 145.463 428.025 147.415 429C149.368 429 150.344 429 152.297 429C156.202 429 160.107 429 164.012 429C167.917 429 171.822 429 175.727 429C177.68 429 178.656 429 180.608 429C182.561 429 185.49 429 187.442 428.025C189.395 428.025 191.347 428.025 193.3 427.05C195.252 427.05 197.205 427.05 199.157 426.075C201.11 426.075 203.062 425.1 205.015 424.125C206.967 424.125 208.92 423.15 209.896 422.175C211.849 422.175 213.801 421.2 214.777 420.225C216.73 420.225 218.683 418.275 220.635 418.275C222.588 418.275 223.564 417.3 225.516 416.325C227.469 415.35 230.398 414.375 232.35 413.4L235.279 411.45C238.208 409.5 241.137 408.525 243.089 406.575C243.089 406.575 244.065 406.575 245.042 405.6C247.97 403.65 251.875 401.7 254.804 398.775C255.78 397.8 256.757 395.85 256.757 393.9L255.78 394.875ZM82.9822 392.925L85.911 334.425C85.911 328.575 88.8398 323.7 93.7211 320.775C98.6024 317.85 104.46 316.875 109.341 318.825C147.415 332.475 183.537 333.45 218.683 319.8C224.54 317.85 230.398 317.85 234.303 321.75C238.208 325.65 242.113 329.55 242.113 335.4L245.042 392.925C220.635 410.475 193.3 419.25 164.012 419.25C134.724 419.25 106.412 410.475 82.006 392.925H82.9822Z" fill="#008f39"/>
<path d="M313.38 296.4C311.427 295.425 309.475 294.45 308.499 293.475C268.472 273.975 229.421 272.025 217.706 272.025C205.991 272.025 213.801 273.975 212.825 275.925C212.825 277.875 212.825 280.8 215.754 281.775C215.754 281.775 230.398 289.575 243.089 306.15C259.685 326.625 266.519 351.975 263.59 378.3V380.25C263.59 382.2 264.567 384.15 266.519 385.125H268.472C270.424 385.125 271.401 385.125 272.377 383.175C275.306 380.25 278.234 376.35 281.163 373.425C281.163 373.425 282.139 372.45 283.116 371.475C285.068 368.55 287.021 365.625 288.973 363.675C288.973 362.7 290.926 361.725 290.926 360.75C292.878 357.825 293.855 355.875 295.807 352.95C295.807 351.975 296.783 351 297.76 350.025C299.712 346.125 301.665 342.225 303.617 338.325C305.57 334.425 306.546 331.5 308.499 327.6C308.499 326.625 309.475 325.65 310.451 323.7C311.427 321.75 312.404 318.825 313.38 316.875C313.38 315.9 314.356 313.95 315.332 312.975C316.309 311.025 317.285 309.075 317.285 307.125C317.285 306.15 318.261 305.175 318.261 304.2C318.261 303.225 318.261 302.25 318.261 302.25C319.237 298.35 318.261 296.4 316.309 295.425L313.38 296.4ZM291.902 334.425C287.021 346.125 280.187 356.85 272.377 366.6C272.377 336.375 259.685 313.95 248.947 299.325C243.089 292.5 238.208 286.65 233.326 282.75C250.899 284.7 278.234 289.575 304.593 302.25C301.665 312 296.783 321.75 291.902 333.45V334.425Z" fill="#008f39"/>
<path d="M61.5044 386.1H63.4569C65.4094 385.125 66.3857 383.175 66.3857 381.225V379.275C63.4569 351.975 70.2907 328.575 86.8872 307.125C99.5786 290.55 113.246 282.75 114.223 282.75C116.175 281.775 117.151 278.85 117.151 276.9C117.151 274.95 114.223 273 112.27 273C100.555 273 61.5044 274.95 21.4777 294.45C19.5252 295.425 17.5726 296.4 16.5964 297.375C14.6439 298.35 13.6676 301.275 13.6676 303.225V305.175C13.6676 306.15 13.6676 307.125 14.6439 308.1C14.6439 310.05 16.5964 312 16.5964 313.95C16.5964 314.925 17.5726 316.875 18.5489 317.85C19.5252 319.8 20.5014 322.725 21.4777 324.675C21.4777 325.65 22.454 326.625 23.4302 328.575C25.3827 332.475 26.359 335.4 28.3115 339.3C30.264 343.2 32.2166 347.1 34.1691 351C34.1691 351.975 35.1453 352.95 36.1216 353.925C38.0741 356.85 39.0504 358.8 41.0029 361.725C41.0029 362.7 42.9554 363.675 42.9554 364.65C44.908 367.575 46.8605 370.5 48.813 372.45C48.813 372.45 49.7893 373.425 50.7655 374.4C53.6943 378.3 56.6231 381.225 59.5519 384.15C61.5044 387.075 62.4807 387.075 63.4569 387.075L61.5044 386.1ZM24.4065 303.225C50.7655 289.575 78.1008 284.7 95.6735 283.725C90.7922 287.625 85.9109 293.475 80.0534 300.3C68.3382 314.925 56.6231 336.375 56.6231 367.575C48.813 357.825 41.9792 347.1 37.0979 335.4C32.2166 323.7 28.3115 312.975 24.4065 304.2V303.225Z" fill="#008f39"/>
<path d="M130.819 153.075L124.961 186.225C124.961 188.175 124.961 190.125 126.914 191.1C127.89 191.1 128.866 192.075 129.843 192.075C130.819 192.075 131.795 192.075 132.771 192.075L162.059 176.475L191.347 192.075C193.3 193.05 195.252 192.075 196.228 192.075C197.205 192.075 199.157 189.15 198.181 187.2L192.323 154.05L215.754 130.65C217.706 128.7 217.706 127.725 216.73 125.775C215.754 123.825 214.777 122.85 212.825 121.875L179.632 117L164.988 87.75C164.012 85.8 162.059 84.825 160.107 84.825C158.154 84.825 156.202 85.8 155.225 87.75L140.582 117L107.389 121.875C105.436 121.875 103.484 123.825 103.484 125.775C103.484 127.725 103.484 129.675 104.46 130.65L129.843 154.05L130.819 153.075ZM150.344 123.825L162.059 100.425L173.774 123.825C173.774 125.775 175.727 126.75 177.679 126.75L203.062 130.65L184.513 148.2C183.537 149.175 182.561 151.125 182.561 153.075L186.466 178.425L164.012 166.725C164.012 166.725 162.059 166.725 161.083 166.725C160.107 166.725 159.131 166.725 158.154 166.725L135.7 178.425L139.605 153.075C139.605 151.125 139.605 150.15 137.653 148.2L119.104 130.65L144.487 126.75C147.415 126.75 148.392 125.775 149.368 123.825H150.344Z" fill="#008f39"/>
</g>
<defs>
<clipPath id="clip0_51_102">
<rect width="329" height="429" fill="#008f39"/>
</clipPath>
</defs>
</svg>
